# xmcd CD database file
#
# Track frame offsets:
#	150
#	39670
#	81131
#	106351
#	135004
#	164666
#	176417
#	207958
#	231770
#
# Disc length: 3212 seconds
#
# Revision: 0
# Processed by: cddbd v1.5.1PL0 Copyright (c) Steve Scherf et al.
# Submitted via: CDex 1.51
#
DISCID=6d0c8a09
DTITLE=Han Bennink - Kazuo Imai - Across the Desert
DYEAR=2002
DGENRE=Jazz
TTITLE0=Attention
TTITLE1=Eyes Right
TTITLE2=Left Turn
TTITLE3=Go Upwind
TTITLE4=My Eyes Wouldn't Focus
TTITLE5=Across the Desert
TTITLE6=Imagination is Obscene
TTITLE7=What? Where?
TTITLE8=In Fifty Years I May be Gone
EXTD=YEAR: 2002
EXTT0=
EXTT1=
EXTT2=
EXTT3=
EXTT4=
EXTT5=
EXTT6=
EXTT7=
EXTT8=
PLAYORDER=
